<svg width="26" height="42" viewBox="0 0 26 42" fill="none" xmlns="http://www.w3.org/2000/svg">
<path d="M24.3427 20.3836C25.3509 17.5779 26 14.8784 26 12.5787M2.49461 19.7885C1.27437 16.779 0.5 14.2067 0.5 12.5787C0.5 5.92322 6.08079 0.5 13 0.5C19.9192 0.5 25.5 5.92322 25.5 12.5787C25.5 14.2067 24.7256 16.779 23.5054 19.7885C22.2949 22.7739 20.6777 26.115 19.056 29.248C17.435 32.3795 15.8135 35.2955 14.5969 37.4291C13.9887 38.4957 13.482 39.3663 13.1274 39.97C13.0825 40.0466 13.04 40.1189 13 40.1867C12.96 40.1189 12.9175 40.0466 12.8726 39.97C12.518 39.3663 12.0113 38.4957 11.4031 37.4291C10.1865 35.2955 8.56499 32.3795 6.94404 29.248C5.32229 26.115 3.70511 22.7739 2.49461 19.7885Z" fill="#FF0000" stroke="#727272"/>
<circle cx="13" cy="13" r="6.5" fill="white"/>
</svg>
